<svg id="Layer_1" data-name="Layer 1" xmlns="http://www.w3.org/2000/svg" viewBox="0 0 1080 1080"><defs><style>.cls-1{fill:#754c24;}.cls-2{fill:#93278f;}</style></defs><rect x="189.4" y="546.39" width="8.51" height="114.53"/><polygon points="857.77 612.48 857.77 660.91 849.26 660.91 849.26 597.95 857.77 612.48"/><polygon points="857.77 612.48 857.77 629.33 849.26 614.8 809.21 546.39 819.07 546.39 849.26 597.95 857.77 612.48"/><path d="M235.41,610.51c14-2.43,24.74-15.77,24.74-31.86,0-17.82-13.14-32.26-29.37-32.26a26.74,26.74,0,0,0-7.76,1.14,24.88,24.88,0,0,0-4.29,1.7H223c16.21,0,29.36,13.8,29.36,30.84,0,13.11-7.78,24.32-18.78,28.76Z"/><polygon points="230.78 546.39 223.02 549.23 189.4 549.23 189.4 546.39 230.78 546.39"/><path d="M197.7,590.14a90.61,90.61,0,0,1,17,4,69.68,69.68,0,0,1,15.8,7.62,46.45,46.45,0,0,1,7,5.63,30.68,30.68,0,0,1,3.08,3.36c.94,1.21,1.94,2.43,2.68,3.6,3.16,4.73,6,9.46,9,14a132.77,132.77,0,0,0,9.46,13.12,54.67,54.67,0,0,0,11.41,10.66,27,27,0,0,0,13.94,4.8c4.95.27,9.95-1.17,14.64-3.37l2.49,5C299,661.26,293,663.15,286.87,663a30.73,30.73,0,0,1-9-1.55,38.45,38.45,0,0,1-8.14-3.92,61.14,61.14,0,0,1-13-11.63,140.94,140.94,0,0,1-10.22-13.58c-3.15-4.64-6.09-9.35-9.17-13.77-.77-1.15-1.57-2-2.34-3a24.24,24.24,0,0,0-2.57-2.7,39.06,39.06,0,0,0-6-4.61c-8.63-5.44-19.32-8.53-29.48-9.79Z"/><path d="M193.66,546.39v11.33H189.4v-1.06a7.42,7.42,0,0,0-7.43-7.43h-5.89v-2.84Z"/><path d="M193.66,660.91V649.58H189.4v1.06a7.42,7.42,0,0,1-7.43,7.43h-5.89v2.84Z"/><path d="M436.53,546.39V554h-2.86v-.72a4.91,4.91,0,0,0-1.08-3.1,7.28,7.28,0,0,0-.54-.58,4.92,4.92,0,0,0-2.32-1.2,4.83,4.83,0,0,0-1.08-.12h-4v-1.93Z"/><path d="M444.46,546.39v1.9h-4a5.54,5.54,0,0,0-2.76.81,4.79,4.79,0,0,0-1.19,1.1,5,5,0,0,0-1.07,3.12V554h-2.87v-7.65Z"/><path d="M535.48,554l.52-1.1a2.42,2.42,0,0,0,0,.38V554Z"/><path d="M545,546.39v1.9h-4a.61.61,0,0,0-.23,0,3.8,3.8,0,0,0-1.16.18,4.57,4.57,0,0,0-1.37.6,5.31,5.31,0,0,0-.69.54l.88-1.84.68-1.41Z"/><path d="M193.66,660.91V649.58h4.25v1.06a7.42,7.42,0,0,0,7.43,7.43h5.89v2.84Z"/><rect x="691.77" y="546.39" width="8.51" height="114.53"/><path d="M737.78,610.51c14-2.43,24.73-15.77,24.73-31.86,0-17.82-13.13-32.26-29.36-32.26a26.69,26.69,0,0,0-7.76,1.14,24.66,24.66,0,0,0-4.3,1.7h4.3c16.2,0,29.36,13.8,29.36,30.84,0,13.11-7.78,24.32-18.78,28.76Z"/><polygon points="733.15 546.39 725.39 549.23 691.77 549.23 691.77 546.39 733.15 546.39"/><path d="M700.07,590.14a90.32,90.32,0,0,1,17,4,69.75,69.75,0,0,1,15.81,7.62,46.37,46.37,0,0,1,7,5.63,30.68,30.68,0,0,1,3.08,3.36c.95,1.21,1.94,2.43,2.69,3.6,3.15,4.73,6,9.46,9,14a134.42,134.42,0,0,0,9.46,13.12,54.67,54.67,0,0,0,11.41,10.66,27,27,0,0,0,13.95,4.8c4.94.27,9.94-1.17,14.63-3.37l2.5,5c-5.23,2.59-11.15,4.48-17.32,4.28a30.78,30.78,0,0,1-9-1.55,38.68,38.68,0,0,1-8.14-3.92,61.09,61.09,0,0,1-13-11.63,140.94,140.94,0,0,1-10.22-13.58c-3.15-4.64-6.1-9.35-9.18-13.77a36.38,36.38,0,0,0-2.34-3,23.35,23.35,0,0,0-2.57-2.7,38.58,38.58,0,0,0-6-4.61c-8.63-5.44-19.32-8.53-29.47-9.79Z"/><path d="M696,546.39v11.33h-4.25v-1.06a7.42,7.42,0,0,0-7.43-7.43h-5.89v-2.84Z"/><path d="M696,660.91V649.58h-4.25v1.06a7.42,7.42,0,0,1-7.43,7.43h-5.89v2.84Z"/><path d="M696,660.91V649.58h4.26v1.06a7.42,7.42,0,0,0,7.43,7.43h5.89v2.84Z"/><path d="M853.52,660.91V649.58h4.25v1.06a7.42,7.42,0,0,0,7.43,7.43h.12v2.84Z"/><path d="M853.52,660.91V649.58h-4.26v1.06a7.42,7.42,0,0,1-7.42,7.43h-.13v2.84Z"/><rect x="323.83" y="546.38" width="8.51" height="114.54"/><polygon points="401.37 546.39 394.24 549.23 323.83 549.23 323.83 546.39 401.37 546.39"/><rect x="323.83" y="592.85" width="54.91" height="2.84"/><polygon points="395.67 658.08 394.24 660.92 323.83 660.92 323.83 658.08 388.12 658.08 395.67 658.08"/><path d="M328.08,546.39v11.33h-4.25v-1.06a7.42,7.42,0,0,0-7.43-7.43h-5.89v-2.84Z"/><path d="M378.74,595.69h-7.65v-2.87h.72a5,5,0,0,0,5-5v-4h1.92Z"/><path d="M378.74,592.85v11.87h-1.91v-4a5,5,0,0,0-5-5h-.73v-2.86Z"/><path d="M404,546.39v13.42h-4.25v-3.15a7.42,7.42,0,0,0-7.43-7.43h-5.89v-2.84Z"/><path d="M328.08,660.91V649.58h-4.25v1.06a7.42,7.42,0,0,1-7.43,7.43h-5.89v2.84Z"/><polygon points="406.03 632.73 387.6 660.91 394.24 660.92 406.03 636.52 406.03 632.73"/><rect x="572.89" y="546.38" width="8.51" height="114.54"/><polygon points="650.43 546.39 643.29 549.23 572.89 549.23 572.89 546.39 650.43 546.39"/><rect x="572.89" y="592.85" width="54.91" height="2.84"/><polygon points="644.73 658.08 643.29 660.92 572.89 660.92 572.89 658.08 637.17 658.08 644.73 658.08"/><path d="M577.14,546.39v11.33h-4.26v-1.06a7.42,7.42,0,0,0-7.42-7.43h-5.9v-2.84Z"/><path d="M627.8,595.69h-7.65v-2.87h.71a5,5,0,0,0,5-5v-4h1.92Z"/><path d="M627.8,592.85v11.87h-1.91v-4a5,5,0,0,0-5-5h-.73v-2.86Z"/><path d="M653.08,546.39v13.42h-4.26v-3.15a7.42,7.42,0,0,0-7.43-7.43H635.5v-2.84Z"/><path d="M577.14,660.91V649.58h-4.26v1.06a7.42,7.42,0,0,1-7.42,7.43h-5.9v2.84Z"/><polygon points="655.08 632.73 636.65 660.91 643.29 660.92 655.08 636.52 655.08 632.73"/><path d="M439.75,549.71a1.22,1.22,0,0,0,.08.47l-.74-1.68,0-.08a3.45,3.45,0,0,1,.91-.13h1.2A1.42,1.42,0,0,0,439.75,549.71Z"/><path d="M430.14,549.37a2.19,2.19,0,0,0-1.7-1h.21a4.83,4.83,0,0,1,1.08.12Z"/><path d="M543.51,546.39V547H542l-.33.7,0,.11-.17.35-.06.12,0,.09L541,549l-.27.56L488.89,658.9l-.95,2H480.2l-43.35-96.59-6.13-13.66-.43-1s0,0,0-.05l-.13-.27-.41-.93-.4-.91-.51-1.14h9.31l.42.91.5,1.12,0,.08.74,1.68.46,1,.13.25a.85.85,0,0,0,.08.17l5.73,12.68,41.13,91.18L535.48,554l.52-1.1,1.55-3.3.88-1.84.68-1.41Z"/><polygon points="486.65 660.91 484.78 660.93 484.78 660.91 486.65 660.91"/><path d="M542.7,547a1.17,1.17,0,0,0-1.06.7l.33-.7Z"/><path d="M542.1,548.29A1.17,1.17,0,0,0,541,549l.29-.62,0-.09Z"/><polygon points="900.49 546.38 903.92 546.38 851.84 623.8 851.05 619.89 900.49 546.38"/><path d="M828.8,563l-9.23,1.08-8-13.43-.51-.94s0,0,0,0l-.22-.33a1.88,1.88,0,0,0-1.53-1h-3.78v-1.93h19.8v1.91H822c-.77,0-1.52.47-1.12,1.15a5,5,0,0,1,.28.49l0,1.28.13.25a.65.65,0,0,0,.08.17Z"/><rect class="cls-1" x="189.4" y="546.39" width="8.51" height="114.53"/><polygon class="cls-1" points="857.77 612.48 857.77 660.91 849.26 660.91 849.26 597.95 857.77 612.48"/><polygon class="cls-1" points="857.77 612.48 857.77 629.33 849.26 614.8 809.21 546.39 819.07 546.39 849.26 597.95 857.77 612.48"/><path class="cls-1" d="M235.41,610.51c14-2.43,24.74-15.77,24.74-31.86,0-17.82-13.14-32.26-29.37-32.26a26.74,26.74,0,0,0-7.76,1.14,24.88,24.88,0,0,0-4.29,1.7H223c16.21,0,29.36,13.8,29.36,30.84,0,13.11-7.78,24.32-18.78,28.76Z"/><polygon class="cls-1" points="230.78 546.39 223.02 549.23 189.4 549.23 189.4 546.39 230.78 546.39"/><path class="cls-1" d="M197.7,590.14a90.61,90.61,0,0,1,17,4,69.68,69.68,0,0,1,15.8,7.62,46.45,46.45,0,0,1,7,5.63,30.68,30.68,0,0,1,3.08,3.36c.94,1.21,1.94,2.43,2.68,3.6,3.16,4.73,6,9.46,9,14a132.77,132.77,0,0,0,9.46,13.12,54.67,54.67,0,0,0,11.41,10.66,27,27,0,0,0,13.94,4.8c4.95.27,9.95-1.17,14.64-3.37l2.49,5C299,661.26,293,663.15,286.87,663a30.73,30.73,0,0,1-9-1.55,38.45,38.45,0,0,1-8.14-3.92,61.14,61.14,0,0,1-13-11.63,140.94,140.94,0,0,1-10.22-13.58c-3.15-4.64-6.09-9.35-9.17-13.77-.77-1.15-1.57-2-2.34-3a24.24,24.24,0,0,0-2.57-2.7,39.06,39.06,0,0,0-6-4.61c-8.63-5.44-19.32-8.53-29.48-9.79Z"/><path class="cls-1" d="M193.66,546.39v11.33H189.4v-1.06a7.42,7.42,0,0,0-7.43-7.43h-5.89v-2.84Z"/><path class="cls-1" d="M193.66,660.91V649.58H189.4v1.06a7.42,7.42,0,0,1-7.43,7.43h-5.89v2.84Z"/><path class="cls-1" d="M436.53,546.39V554h-2.86v-.72a4.91,4.91,0,0,0-1.08-3.1,7.28,7.28,0,0,0-.54-.58,4.92,4.92,0,0,0-2.32-1.2,4.83,4.83,0,0,0-1.08-.12h-4v-1.93Z"/><path class="cls-1" d="M444.46,546.39v1.9h-4a5.54,5.54,0,0,0-2.76.81,4.79,4.79,0,0,0-1.19,1.1,5,5,0,0,0-1.07,3.12V554h-2.87v-7.65Z"/><path class="cls-1" d="M535.48,554l.52-1.1a2.42,2.42,0,0,0,0,.38V554Z"/><path class="cls-1" d="M545,546.39v1.9h-4a.61.61,0,0,0-.23,0,3.8,3.8,0,0,0-1.16.18,4.57,4.57,0,0,0-1.37.6,5.31,5.31,0,0,0-.69.54l.88-1.84.68-1.41Z"/><path class="cls-1" d="M193.66,660.91V649.58h4.25v1.06a7.42,7.42,0,0,0,7.43,7.43h5.89v2.84Z"/><rect class="cls-1" x="691.77" y="546.39" width="8.51" height="114.53"/><path class="cls-1" d="M737.78,610.51c14-2.43,24.73-15.77,24.73-31.86,0-17.82-13.13-32.26-29.36-32.26a26.69,26.69,0,0,0-7.76,1.14,24.66,24.66,0,0,0-4.3,1.7h4.3c16.2,0,29.36,13.8,29.36,30.84,0,13.11-7.78,24.32-18.78,28.76Z"/><polygon class="cls-1" points="733.15 546.39 725.39 549.23 691.77 549.23 691.77 546.39 733.15 546.39"/><path class="cls-1" d="M700.07,590.14a90.32,90.32,0,0,1,17,4,69.75,69.75,0,0,1,15.81,7.62,46.37,46.37,0,0,1,7,5.63,30.68,30.68,0,0,1,3.08,3.36c.95,1.21,1.94,2.43,2.69,3.6,3.15,4.73,6,9.46,9,14a134.42,134.42,0,0,0,9.46,13.12,54.67,54.67,0,0,0,11.41,10.66,27,27,0,0,0,13.95,4.8c4.94.27,9.94-1.17,14.63-3.37l2.5,5c-5.23,2.59-11.15,4.48-17.32,4.28a30.78,30.78,0,0,1-9-1.55,38.68,38.68,0,0,1-8.14-3.92,61.09,61.09,0,0,1-13-11.63,140.94,140.94,0,0,1-10.22-13.58c-3.15-4.64-6.1-9.35-9.18-13.77a36.38,36.38,0,0,0-2.34-3,23.35,23.35,0,0,0-2.57-2.7,38.58,38.58,0,0,0-6-4.61c-8.63-5.44-19.32-8.53-29.47-9.79Z"/><path class="cls-1" d="M696,546.39v11.33h-4.25v-1.06a7.42,7.42,0,0,0-7.43-7.43h-5.89v-2.84Z"/><path class="cls-1" d="M696,660.91V649.58h-4.25v1.06a7.42,7.42,0,0,1-7.43,7.43h-5.89v2.84Z"/><path class="cls-1" d="M696,660.91V649.58h4.26v1.06a7.42,7.42,0,0,0,7.43,7.43h5.89v2.84Z"/><path class="cls-1" d="M853.52,660.91V649.58h4.25v1.06a7.42,7.42,0,0,0,7.43,7.43h.12v2.84Z"/><path class="cls-1" d="M853.52,660.91V649.58h-4.26v1.06a7.42,7.42,0,0,1-7.42,7.43h-.13v2.84Z"/><rect class="cls-1" x="323.83" y="546.38" width="8.51" height="114.54"/><polygon class="cls-1" points="401.37 546.39 394.24 549.23 323.83 549.23 323.83 546.39 401.37 546.39"/><rect class="cls-1" x="323.83" y="592.85" width="54.91" height="2.84"/><polygon class="cls-1" points="395.67 658.08 394.24 660.92 323.83 660.92 323.83 658.08 388.12 658.08 395.67 658.08"/><path class="cls-1" d="M328.08,546.39v11.33h-4.25v-1.06a7.42,7.42,0,0,0-7.43-7.43h-5.89v-2.84Z"/><path class="cls-1" d="M378.74,595.69h-7.65v-2.87h.72a5,5,0,0,0,5-5v-4h1.92Z"/><path class="cls-1" d="M378.74,592.85v11.87h-1.91v-4a5,5,0,0,0-5-5h-.73v-2.86Z"/><path class="cls-1" d="M404,546.39v13.42h-4.25v-3.15a7.42,7.42,0,0,0-7.43-7.43h-5.89v-2.84Z"/><path class="cls-1" d="M328.08,660.91V649.58h-4.25v1.06a7.42,7.42,0,0,1-7.43,7.43h-5.89v2.84Z"/><polygon class="cls-1" points="406.03 632.73 387.6 660.91 394.24 660.92 406.03 636.52 406.03 632.73"/><rect class="cls-1" x="572.89" y="546.38" width="8.51" height="114.54"/><polygon class="cls-1" points="650.43 546.39 643.29 549.23 572.89 549.23 572.89 546.39 650.43 546.39"/><rect class="cls-1" x="572.89" y="592.85" width="54.91" height="2.84"/><polygon class="cls-1" points="644.73 658.08 643.29 660.92 572.89 660.92 572.89 658.08 637.17 658.08 644.73 658.08"/><path class="cls-1" d="M577.14,546.39v11.33h-4.26v-1.06a7.42,7.42,0,0,0-7.42-7.43h-5.9v-2.84Z"/><path class="cls-1" d="M627.8,595.69h-7.65v-2.87h.71a5,5,0,0,0,5-5v-4h1.92Z"/><path class="cls-1" d="M627.8,592.85v11.87h-1.91v-4a5,5,0,0,0-5-5h-.73v-2.86Z"/><path class="cls-1" d="M653.08,546.39v13.42h-4.26v-3.15a7.42,7.42,0,0,0-7.43-7.43H635.5v-2.84Z"/><path class="cls-1" d="M577.14,660.91V649.58h-4.26v1.06a7.42,7.42,0,0,1-7.42,7.43h-5.9v2.84Z"/><polygon class="cls-1" points="655.08 632.73 636.65 660.91 643.29 660.92 655.08 636.52 655.08 632.73"/><path class="cls-1" d="M439.75,549.71a1.22,1.22,0,0,0,.08.47l-.74-1.68,0-.08a3.45,3.45,0,0,1,.91-.13h1.2A1.42,1.42,0,0,0,439.75,549.71Z"/><path class="cls-1" d="M430.14,549.37a2.19,2.19,0,0,0-1.7-1h.21a4.83,4.83,0,0,1,1.08.12Z"/><path class="cls-1" d="M543.51,546.39V547H542l-.33.7,0,.11-.17.35-.06.12,0,.09L541,549l-.27.56L488.89,658.9l-.95,2H480.2l-43.35-96.59-6.13-13.66-.43-1s0,0,0-.05l-.13-.27-.41-.93-.4-.91-.51-1.14h9.31l.42.91.5,1.12,0,.08.74,1.68.46,1,.13.25a.85.85,0,0,0,.08.17l5.73,12.68,41.13,91.18L535.48,554l.52-1.1,1.55-3.3.88-1.84.68-1.41Z"/><polygon class="cls-1" points="486.65 660.91 484.78 660.93 484.78 660.91 486.65 660.91"/><path class="cls-1" d="M542.7,547a1.17,1.17,0,0,0-1.06.7l.33-.7Z"/><path class="cls-1" d="M542.1,548.29A1.17,1.17,0,0,0,541,549l.29-.62,0-.09Z"/><polygon class="cls-1" points="900.49 546.38 903.92 546.38 851.84 623.8 851.05 619.89 900.49 546.38"/><path class="cls-1" d="M828.8,563l-9.23,1.08-8-13.43-.51-.94s0,0,0,0l-.22-.33a1.88,1.88,0,0,0-1.53-1h-3.78v-1.93h19.8v1.91H822c-.77,0-1.52.47-1.12,1.15a5,5,0,0,1,.28.49l0,1.28.13.25a.65.65,0,0,0,.08.17Z"/><path d="M258.71,731.86v7.62H274v2.58H258.71v10.19h-4.2v-23h21.86v2.57Z"/><path d="M313.36,749.65v2.57H290.92V729.35h4.2v20.3Z"/><path d="M324,740.8c0-6.48,8.61-11.78,19.11-11.78s19.14,5.3,19.14,11.78-8.61,11.72-19.16,11.72S324,747.24,324,740.8Zm34,0c0-5-6.69-9.16-14.91-9.16s-14.84,4.13-14.84,9.16,6.67,9.13,14.84,9.13S358,745.81,358,740.78Z"/><path d="M371.72,729.35h4.5l8.08,16.7,9.09-14.84h.33l9,14.84,8.08-16.7h4.52l-11.54,23h-.65l-9.67-15.17-9.63,15.17h-.62Z"/><path d="M433.51,731.89v7.23h15.31v2.59H433.51v7.94h17.66v2.57H429.31V729.35h21.86v2.54Z"/><path d="M488.85,752.22l-10.39-8.93h-6.95v8.93h-4.2l0-22.87h11c6.9,0,12.53,3.26,12.53,7.29,0,3-3.3,5.52-7.83,6.36L494,752.22Zm-10.44-11.1c4.44,0,8.08-2.07,8.08-4.54,0-2.63-3.69-4.68-8.08-4.68h-6.92v9.21Z"/><path d="M505.45,748.13l3.23-1.46c1.68,2,5.49,3.26,9.44,3.26,4.87,0,8.84-1.61,8.84-3.87,0-2.57-5.33-3.8-10.09-4.91-4.57-1.09-9.67-2.47-9.67-6s5.15-6.14,11.68-6.14c5.52,0,9.28,1.86,10.67,4.11l-3.17,1.31c-1.2-1.72-4.2-2.88-7.54-2.88-4,0-7.41,1.62-7.41,3.66,0,2.21,4.08,3,8.88,4.16,5.59,1.39,10.88,3,10.88,6.65,0,3.94-5.94,6.51-13.09,6.51C512,752.53,507.22,750.57,505.45,748.13Z"/><path d="M595,745.24c0,3.62-4.67,7-11.78,7H569.42V729.35h10.16c6.21,0,10.69,2.7,10.69,5.7,0,2.49-2.93,4.29-4.83,4.29C590.22,739.34,595,741.79,595,745.24ZM573.6,731.86v6.92h6.19c4,0,6.53-1.5,6.53-3.43s-3-3.49-6.51-3.49Zm17.27,13.21c0-2.14-3.3-4-8.22-4h-9v8.61h9.26C587.11,749.69,590.87,747.72,590.87,745.07Z"/><path d="M607.56,740.8c0-6.48,8.61-11.78,19.11-11.78s19.14,5.3,19.14,11.78-8.61,11.72-19.16,11.72S607.56,747.24,607.56,740.8Zm34,0c0-5-6.69-9.16-14.91-9.16s-14.84,4.13-14.84,9.16,6.67,9.13,14.84,9.13S641.56,745.81,641.56,740.78Z"/><path d="M660.75,743.34v-14H665v14c0,3.85,4.06,6.64,9.56,6.64s9.55-2.81,9.55-6.64v-14h4.23v14c0,5.33-5.87,9.23-13.78,9.23S660.75,748.67,660.75,743.34Z"/><path d="M734.66,749.75a21.76,21.76,0,0,0,6.53,1l-.6,2.53a21.83,21.83,0,0,1-9.46-2.1,28.81,28.81,0,0,1-8.8,1.32c-10.47,0-19.09-5.28-19.09-11.72S711.86,729,722.36,729s19.13,5.3,19.13,11.78C741.49,744.37,738.84,747.59,734.66,749.75Zm-12.33.16a22.68,22.68,0,0,0,5.54-.66c-3.53-2.49-6.07-5.23-11.08-5.33l.4-2.26c7.18.17,9.58,3.83,14,6.47,3.7-1.67,6.1-4.34,6.1-7.35,0-5-6.7-9.16-14.92-9.16s-14.84,4.13-14.84,9.16S714.16,749.91,722.33,749.91Z"/><path d="M756.43,743.34v-14h4.22v14c0,3.85,4.07,6.64,9.56,6.64s9.56-2.81,9.56-6.64v-14H784v14c0,5.33-5.86,9.23-13.78,9.23S756.43,748.67,756.43,743.34Z"/><path d="M805.09,731.89v7.23H820.4v2.59H805.09v7.94h17.66v2.57H800.89V729.35h21.86v2.54Z"/><path d="M861.93,731.9H851.15v20.32H847V731.9H836.12v-2.55h25.81Z"/><path class="cls-1" d="M258.71,731.86v7.62H274v2.58H258.71v10.19h-4.2v-23h21.86v2.57Z"/><path class="cls-1" d="M313.36,749.65v2.57H290.92V729.35h4.2v20.3Z"/><path class="cls-1" d="M324,740.8c0-6.48,8.61-11.78,19.11-11.78s19.14,5.3,19.14,11.78-8.61,11.72-19.16,11.72S324,747.24,324,740.8Zm34,0c0-5-6.69-9.16-14.91-9.16s-14.84,4.13-14.84,9.16,6.67,9.13,14.84,9.13S358,745.81,358,740.78Z"/><path class="cls-1" d="M371.72,729.35h4.5l8.08,16.7,9.09-14.84h.33l9,14.84,8.08-16.7h4.52l-11.54,23h-.65l-9.67-15.17-9.63,15.17h-.62Z"/><path class="cls-1" d="M433.51,731.89v7.23h15.31v2.59H433.51v7.94h17.66v2.57H429.31V729.35h21.86v2.54Z"/><path class="cls-1" d="M488.85,752.22l-10.39-8.93h-6.95v8.93h-4.2l0-22.87h11c6.9,0,12.53,3.26,12.53,7.29,0,3-3.3,5.52-7.83,6.36L494,752.22Zm-10.44-11.1c4.44,0,8.08-2.07,8.08-4.54,0-2.63-3.69-4.68-8.08-4.68h-6.92v9.21Z"/><path class="cls-1" d="M505.45,748.13l3.23-1.46c1.68,2,5.49,3.26,9.44,3.26,4.87,0,8.84-1.61,8.84-3.87,0-2.57-5.33-3.8-10.09-4.91-4.57-1.09-9.67-2.47-9.67-6s5.15-6.14,11.68-6.14c5.52,0,9.28,1.86,10.67,4.11l-3.17,1.31c-1.2-1.72-4.2-2.88-7.54-2.88-4,0-7.41,1.62-7.41,3.66,0,2.21,4.08,3,8.88,4.16,5.59,1.39,10.88,3,10.88,6.65,0,3.94-5.94,6.51-13.09,6.51C512,752.53,507.22,750.57,505.45,748.13Z"/><path class="cls-1" d="M595,745.24c0,3.62-4.67,7-11.78,7H569.42V729.35h10.16c6.21,0,10.69,2.7,10.69,5.7,0,2.49-2.93,4.29-4.83,4.29C590.22,739.34,595,741.79,595,745.24ZM573.6,731.86v6.92h6.19c4,0,6.53-1.5,6.53-3.43s-3-3.49-6.51-3.49Zm17.27,13.21c0-2.14-3.3-4-8.22-4h-9v8.61h9.26C587.11,749.69,590.87,747.72,590.87,745.07Z"/><path class="cls-1" d="M607.56,740.8c0-6.48,8.61-11.78,19.11-11.78s19.14,5.3,19.14,11.78-8.61,11.72-19.16,11.72S607.56,747.24,607.56,740.8Zm34,0c0-5-6.69-9.16-14.91-9.16s-14.84,4.13-14.84,9.16,6.67,9.13,14.84,9.13S641.56,745.81,641.56,740.78Z"/><path class="cls-1" d="M660.75,743.34v-14H665v14c0,3.85,4.06,6.64,9.56,6.64s9.55-2.81,9.55-6.64v-14h4.23v14c0,5.33-5.87,9.23-13.78,9.23S660.75,748.67,660.75,743.34Z"/><path class="cls-1" d="M734.66,749.75a21.76,21.76,0,0,0,6.53,1l-.6,2.53a21.83,21.83,0,0,1-9.46-2.1,28.81,28.81,0,0,1-8.8,1.32c-10.47,0-19.09-5.28-19.09-11.72S711.86,729,722.36,729s19.13,5.3,19.13,11.78C741.49,744.37,738.84,747.59,734.66,749.75Zm-12.33.16a22.68,22.68,0,0,0,5.54-.66c-3.53-2.49-6.07-5.23-11.08-5.33l.4-2.26c7.18.17,9.58,3.83,14,6.47,3.7-1.67,6.1-4.34,6.1-7.35,0-5-6.7-9.16-14.92-9.16s-14.84,4.13-14.84,9.16S714.16,749.91,722.33,749.91Z"/><path class="cls-1" d="M756.43,743.34v-14h4.22v14c0,3.85,4.07,6.64,9.56,6.64s9.56-2.81,9.56-6.64v-14H784v14c0,5.33-5.86,9.23-13.78,9.23S756.43,748.67,756.43,743.34Z"/><path class="cls-1" d="M805.09,731.89v7.23H820.4v2.59H805.09v7.94h17.66v2.57H800.89V729.35h21.86v2.54Z"/><path class="cls-1" d="M861.93,731.9H851.15v20.32H847V731.9H836.12v-2.55h25.81Z"/><path class="cls-2" d="M552.39,490.85c-2.88-7.1-5.19-14.43-8.82-21.2s-8.85-13.4-16.41-16.08a76.56,76.56,0,0,0-8.29-2.18q-4.62-1.08-9.28-1.91a181.75,181.75,0,0,0-18.74-2.38c-10.64-.79-21.35.13-31.79-2.51-10-2.52-19.5-7.87-24.24-17.35l-.47,1.15a114.49,114.49,0,0,1,42.7-1.92c14.77,2.07,29.32,7,41.72,15.38a74.37,74.37,0,0,1,18.38,17.67c.59.8,1.94,0,1.35-.79-9.09-12.46-21.86-21.56-36.12-27.25a116.77,116.77,0,0,0-68.44-4.59.78.78,0,0,0-.46,1.14c4,8,11.38,13.29,19.6,16.34a60.84,60.84,0,0,0,13.37,3.18,140,140,0,0,0,15.19.66,179.78,179.78,0,0,1,37.79,4.91c4.66,1.11,9.19,2.16,13.08,5.1a33.38,33.38,0,0,1,7.94,9.13c4.62,7.45,7.16,15.84,10.44,23.91.37.92,1.88.51,1.5-.41Z"/><path class="cls-2" d="M548.28,481.23c-7.64-16.69-15.79-33.17-24.84-49.15a360.94,360.94,0,0,0-30.67-46.25,230,230,0,0,0-20.32-22.58c-.72-.69-1.83.4-1.1,1.1,13.07,12.64,24.37,27,34.48,42.07a462.49,462.49,0,0,1,27.93,48.22c4.59,9,9,18.17,13.18,27.38.41.91,1.76.12,1.34-.79Z"/><path class="cls-2" d="M470.35,364.66a101.35,101.35,0,0,0,12.89,36.44,105.13,105.13,0,0,0,25.32,29.24A99.27,99.27,0,0,0,527,442c.9.44,1.69-.9.79-1.34a102.72,102.72,0,0,1-50.52-55.45,98.8,98.8,0,0,1-5.45-20.92c-.15-1-1.65-.57-1.5.41Z"/><path class="cls-2" d="M471,364.41c-4.74,16.77-3.62,34.54,4.26,50.18a76.7,76.7,0,0,0,8.15,12.71c.62.79,1.71-.32,1.1-1.1-10.48-13.4-16-29.89-14.66-46.93a73.9,73.9,0,0,1,2.66-14.44.78.78,0,0,0-1.51-.42Z"/><path class="cls-2" d="M546.81,473.14C536,457,529,438.26,524.14,419.56c-5.24-20.14-8.14-41.33-6.5-62.15.79-10.08,2.73-20.26,6.87-29.54h-1.34a174.44,174.44,0,0,1,22.21,54.45,208.44,208.44,0,0,1,4.46,58.84,230.52,230.52,0,0,1-4.57,33.29c-.2,1,1.3,1.39,1.5.41a227.27,227.27,0,0,0,4.72-59.66,194.38,194.38,0,0,0-12.06-58.12,170.48,170.48,0,0,0-14.92-30,.79.79,0,0,0-1.34,0c-7.86,17.6-8.48,38-6.83,56.88a219.72,219.72,0,0,0,14.77,62,149.42,149.42,0,0,0,14.35,28c.56.83,1.91.05,1.35-.79Z"/><path class="cls-2" d="M546.44,468.91c-7.66-19.26-11.12-40.18-7.83-60.78,3.14-19.74,12.13-38,24.33-53.7A181.34,181.34,0,0,1,588.51,328l-1.33-.55c-1,10.42-1.37,20.91-2.4,31.33a132.06,132.06,0,0,1-6.57,29.51,243,243,0,0,0-7.3,28.38c-1.87,8.92-3.74,18-7.29,26.4-3.89,9.27-10.11,17.11-19.23,21.64-.89.45-.11,1.79.79,1.34a40.55,40.55,0,0,0,18-18.28c4.21-8.24,6.4-17.36,8.34-26.35,2-9.5,3.78-19.11,6.76-28.39,1.75-5.46,3.67-10.84,5.06-16.41a119.74,119.74,0,0,0,2.6-14c1.46-11.66,1.65-23.44,2.82-35.12.08-.74-.87-.94-1.32-.55-16.28,13.9-30.79,30.35-40.29,49.67a108.14,108.14,0,0,0-10.88,57.47,126.71,126.71,0,0,0,8.7,35.26c.37.92,1.88.51,1.5-.42Z"/><path class="cls-2" d="M547.69,479.33a110.76,110.76,0,0,1,6.78-58.91,119.62,119.62,0,0,1,64.27-65.21l-1.17-.67c-.42,17.76-6,35.09-14.43,50.63a153.42,153.42,0,0,1-34.31,42.51,139.21,139.21,0,0,1-24.44,17.06c-.88.48-.09,1.82.79,1.34A148,148,0,0,0,587,431.46c11.82-14,21.4-30.15,27-47.64a104.19,104.19,0,0,0,5.11-29.28.79.79,0,0,0-1.17-.67,121.14,121.14,0,0,0-48.22,37.05A117.81,117.81,0,0,0,546,445.62a110.91,110.91,0,0,0,.21,34.12c.16,1,1.66.57,1.5-.41Z"/><path class="cls-2" d="M653.06,416.29a148.76,148.76,0,0,0-35.17-9.75c-11.72-1.64-24-1.73-35.41,1.81a46.57,46.57,0,0,0-24.65,17.81A70.7,70.7,0,0,0,546.47,455c-1.72,10.16-1.86,21.26,1.79,31a1.22,1.22,0,0,0,.12.19,22.68,22.68,0,0,0,2.59,5.25c.55.82,1.9.05,1.34-.79a22.78,22.78,0,0,1-.86-23.45c4.12-7.61,11.94-12.5,19.47-16.25,16.92-8.41,35-14.61,52.6-21.29,10-3.78,20-7.64,29.73-12C653.94,417.4,653.6,416.51,653.06,416.29Zm-56.72,22.07c-8.7,3.42-17.43,6.93-25.82,11.07-7.63,3.76-15.49,8.64-19.93,16.13a25.28,25.28,0,0,0-3.29,9.5,68.44,68.44,0,0,1,.17-16.25A72.4,72.4,0,0,1,557,430.27,45.2,45.2,0,0,1,580.1,410.8c10.8-4,22.64-4.41,34-3.17a142.46,142.46,0,0,1,36.72,9.44C632.94,424.86,614.48,431.23,596.34,438.36Z"/><path class="cls-1" d="M552.39,490.85c-2.88-7.1-5.19-14.43-8.82-21.2s-8.85-13.4-16.41-16.08a76.56,76.56,0,0,0-8.29-2.18q-4.62-1.08-9.28-1.91a181.75,181.75,0,0,0-18.74-2.38c-10.64-.79-21.35.13-31.79-2.51-10-2.52-19.5-7.87-24.24-17.35l-.47,1.15a114.49,114.49,0,0,1,42.7-1.92c14.77,2.07,29.32,7,41.72,15.38a74.37,74.37,0,0,1,18.38,17.67c.59.8,1.94,0,1.35-.79-9.09-12.46-21.86-21.56-36.12-27.25a116.77,116.77,0,0,0-68.44-4.59.78.78,0,0,0-.46,1.14c4,8,11.38,13.29,19.6,16.34a60.84,60.84,0,0,0,13.37,3.18,140,140,0,0,0,15.19.66,179.78,179.78,0,0,1,37.79,4.91c4.66,1.11,9.19,2.16,13.08,5.1a33.38,33.38,0,0,1,7.94,9.13c4.62,7.45,7.16,15.84,10.44,23.91.37.92,1.88.51,1.5-.41Z"/><path class="cls-1" d="M548.28,481.23c-7.64-16.69-15.79-33.17-24.84-49.15a360.94,360.94,0,0,0-30.67-46.25,230,230,0,0,0-20.32-22.58c-.72-.69-1.83.4-1.1,1.1,13.07,12.64,24.37,27,34.48,42.07a462.49,462.49,0,0,1,27.93,48.22c4.59,9,9,18.17,13.18,27.38.41.91,1.76.12,1.34-.79Z"/><path class="cls-1" d="M470.35,364.66a101.35,101.35,0,0,0,12.89,36.44,105.13,105.13,0,0,0,25.32,29.24A99.27,99.27,0,0,0,527,442c.9.44,1.69-.9.79-1.34a102.72,102.72,0,0,1-50.52-55.45,98.8,98.8,0,0,1-5.45-20.92c-.15-1-1.65-.57-1.5.41Z"/><path class="cls-1" d="M471,364.41c-4.74,16.77-3.62,34.54,4.26,50.18a76.7,76.7,0,0,0,8.15,12.71c.62.79,1.71-.32,1.1-1.1-10.48-13.4-16-29.89-14.66-46.93a73.9,73.9,0,0,1,2.66-14.44.78.78,0,0,0-1.51-.42Z"/><path class="cls-1" d="M546.81,473.14C536,457,529,438.26,524.14,419.56c-5.24-20.14-8.14-41.33-6.5-62.15.79-10.08,2.73-20.26,6.87-29.54h-1.34a174.44,174.44,0,0,1,22.21,54.45,208.44,208.44,0,0,1,4.46,58.84,230.52,230.52,0,0,1-4.57,33.29c-.2,1,1.3,1.39,1.5.41a227.27,227.27,0,0,0,4.72-59.66,194.38,194.38,0,0,0-12.06-58.12,170.48,170.48,0,0,0-14.92-30,.79.79,0,0,0-1.34,0c-7.86,17.6-8.48,38-6.83,56.88a219.72,219.72,0,0,0,14.77,62,149.42,149.42,0,0,0,14.35,28c.56.83,1.91.05,1.35-.79Z"/><path class="cls-1" d="M546.44,468.91c-7.66-19.26-11.12-40.18-7.83-60.78,3.14-19.74,12.13-38,24.33-53.7A181.34,181.34,0,0,1,588.51,328l-1.33-.55c-1,10.42-1.37,20.91-2.4,31.33a132.06,132.06,0,0,1-6.57,29.51,243,243,0,0,0-7.3,28.38c-1.87,8.92-3.74,18-7.29,26.4-3.89,9.27-10.11,17.11-19.23,21.64-.89.45-.11,1.79.79,1.34a40.55,40.55,0,0,0,18-18.28c4.21-8.24,6.4-17.36,8.34-26.35,2-9.5,3.78-19.11,6.76-28.39,1.75-5.46,3.67-10.84,5.06-16.41a119.74,119.74,0,0,0,2.6-14c1.46-11.66,1.65-23.44,2.82-35.12.08-.74-.87-.94-1.32-.55-16.28,13.9-30.79,30.35-40.29,49.67a108.14,108.14,0,0,0-10.88,57.47,126.71,126.71,0,0,0,8.7,35.26c.37.92,1.88.51,1.5-.42Z"/><path class="cls-1" d="M547.69,479.33a110.76,110.76,0,0,1,6.78-58.91,119.62,119.62,0,0,1,64.27-65.21l-1.17-.67c-.42,17.76-6,35.09-14.43,50.63a153.42,153.42,0,0,1-34.31,42.51,139.21,139.21,0,0,1-24.44,17.06c-.88.48-.09,1.82.79,1.34A148,148,0,0,0,587,431.46c11.82-14,21.4-30.15,27-47.64a104.19,104.19,0,0,0,5.11-29.28.79.79,0,0,0-1.17-.67,121.14,121.14,0,0,0-48.22,37.05A117.81,117.81,0,0,0,546,445.62a110.91,110.91,0,0,0,.21,34.12c.16,1,1.66.57,1.5-.41Z"/><path class="cls-1" d="M653.06,416.29a148.76,148.76,0,0,0-35.17-9.75c-11.72-1.64-24-1.73-35.41,1.81a46.57,46.57,0,0,0-24.65,17.81A70.7,70.7,0,0,0,546.47,455c-1.72,10.16-1.86,21.26,1.79,31a1.22,1.22,0,0,0,.12.19,22.68,22.68,0,0,0,2.59,5.25c.55.82,1.9.05,1.34-.79a22.78,22.78,0,0,1-.86-23.45c4.12-7.61,11.94-12.5,19.47-16.25,16.92-8.41,35-14.61,52.6-21.29,10-3.78,20-7.64,29.73-12C653.94,417.4,653.6,416.51,653.06,416.29Zm-56.72,22.07c-8.7,3.42-17.43,6.93-25.82,11.07-7.63,3.76-15.49,8.64-19.93,16.13a25.28,25.28,0,0,0-3.29,9.5,68.44,68.44,0,0,1,.17-16.25A72.4,72.4,0,0,1,557,430.27,45.2,45.2,0,0,1,580.1,410.8c10.8-4,22.64-4.41,34-3.17a142.46,142.46,0,0,1,36.72,9.44C632.94,424.86,614.48,431.23,596.34,438.36Z"/></svg>